# xmcd CD database file
#
# Track frame offsets:
#	150
#	13827
#	32033
#	61986
#	88409
#	109745
#	142639
#	150724
#	165746
#	181309
#	195164
#	216354
#	229953
#	239923
#	251652
#	279808
#
# Disc length: 4141 seconds
#
# Revision: 4
# Processed by: cddbd v1.4PL0 Copyright (c) Steve Scherf et al.
# Submitted via: CDex 1.51
#
DISCID=dd102b10
DTITLE=Vieja Trova Santiaguera - PURA TROVA - The Best of Vieja Trova Santiaguera [CD2 of 2)
DYEAR=2000
DGENRE=Jazz
TTITLE0=Un año de amor
TTITLE1=Huellas del pasado
TTITLE2=Nengón para ti
TTITLE3=El paralítico
TTITLE4=Yo son gangá
TTITLE5=Guarapo, pimienta y sal
TTITLE6=Sandunguera
TTITLE7=Arrebatadora
TTITLE8=Guajiro
TTITLE9=Maleficio
TTITLE10=La clave misteriosa
TTITLE11=Arrímese usted
TTITLE12=Un canto de amor
TTITLE13=La última noche que pasé contigo
TTITLE14=Suite de boleros: Angelitos negros, Dos gardenias, Bésame mucho
TTITLE15=Lo Funerales de Papá Montero
EXTD=YEAR: 2000
EXTT0=
EXTT1=
EXTT2=
EXTT3=
EXTT4=
EXTT5=
EXTT6=
EXTT7=
EXTT8=
EXTT9=
EXTT10=
EXTT11=
EXTT12=
EXTT13=
EXTT14=
EXTT15=
PLAYORDER=
